{
  "accessors": [
    {
      "bufferView": 2,
      "componentType": 5126,
      "count": 526,
      "max": [
        1.0011342763900757,
        1.0,
        1.009390115737915
      ],
      "min": [
        -1.0011345148086548,
        -9.780370712280273,
        -1.0011343955993652
      ],
      "type": "VEC3"
    },
    {
      "bufferView": 2,
      "byteOffset": 6312,
      "componentType": 5126,
      "count": 526,
      "max": [
        1.0,
        1.0,
        1.0
      ],
      "min": [
        -1.0,
        -1.0,
        -1.0
      ],
      "type": "VEC3"
    },
    {
      "bufferView": 1,
      "componentType": 5126,
      "count": 526,
      "max": [
        1.0,
        1.0
      ],
      "min": [
        0.0,
        0.0
      ],
      "type": "VEC2"
    },
    {
      "bufferView": 0,
      "componentType": 5125,
      "count": 882,
      "type": "SCALAR"
    },
    {
      "bufferView": 2,
      "byteOffset": 12624,
      "componentType": 5126,
      "count": 756,
      "max": [
        1.2078770399093628,
        -9.780370712280273,
        1.2078771591186523
      ],
      "min": [
        -1.207877516746521,
        -12.602472305297852,
        -1.2078771591186523
      ],
      "type": "VEC3"
    },
    {
      "bufferView": 2,
      "byteOffset": 21696,
      "componentType": 5126,
      "count": 756,
      "max": [
        0.9951865673065186,
        0.2043026238679886,
        0.9951865673065186
      ],
      "min": [
        -0.9951865673065186,
        -1.0,
        -0.9951865673065186
      ],
      "type": "VEC3"
    },
    {
      "bufferView": 1,
      "byteOffset": 4208,
      "componentType": 5126,
      "count": 756,
      "max": [
        1.0,
        0.9900000095367432
      ],
      "min": [
        0.0,
        0.0
      ],
      "type": "VEC2"
    },
    {
      "bufferView": 0,
      "byteOffset": 3528,
      "componentType": 5125,
      "count": 1242,
      "type": "SCALAR"
    },
    {
      "bufferView": 2,
      "byteOffset": 30768,
      "componentType": 5126,
      "count": 44,
      "max": [
        -0.8400001525878906,
        -5.0,
        0.05999999865889549
      ],
      "min": [
        -1.660000205039978,
        -11.600000381469727,
        -0.05999999865889549
      ],
      "type": "VEC3"
    },
    {
      "bufferView": 2,
      "byteOffset": 31296,
      "componentType": 5126,
      "count": 44,
      "max": [
        1.0,
        0.32329893112182617,
        1.0
      ],
      "min": [
        -1.0,
        -0.2501048445701599,
        -1.0
      ],
      "type": "VEC3"
    },
    {
      "bufferView": 1,
      "byteOffset": 10256,
      "componentType": 5126,
      "count": 44,
      "max": [
        0.875,
        1.0
      ],
      "min": [
        0.125,
        0.0
      ],
      "type": "VEC2"
    },
    {
      "bufferView": 0,
      "byteOffset": 8496,
      "componentType": 5125,
      "count": 84,
      "type": "SCALAR"
    },
    {
      "bufferView": 2,
      "byteOffset": 31824,
      "componentType": 5126,
      "count": 44,
      "max": [
        1.660000205039978,
        -5.0,
        0.06000014767050743
      ],
      "min": [
        0.8400001525878906,
        -11.600000381469727,
        -0.060000114142894745
      ],
      "type": "VEC3"
    },
    {
      "bufferView": 2,
      "byteOffset": 32352,
      "componentType": 5126,
      "count": 44,
      "max": [
        1.0,
        0.32329893112182617,
        1.0
      ],
      "min": [
        -1.0,
        -0.2501048445701599,
        -1.0
      ],
      "type": "VEC3"
    },
    {
      "bufferView": 1,
      "byteOffset": 10608,
      "componentType": 5126,
      "count": 44,
      "max": [
        0.875,
        1.0
      ],
      "min": [
        0.125,
        0.0
      ],
      "type": "VEC2"
    },
    {
      "bufferView": 0,
      "byteOffset": 8832,
      "componentType": 5125,
      "count": 84,
      "type": "SCALAR"
    },
    {
      "bufferView": 2,
      "byteOffset": 32880,
      "componentType": 5126,
      "count": 560,
      "max": [
        1.0,
        3.768357038497925,
        1.0
      ],
      "min": [
        -1.0,
        0.9999996423721313,
        -1.0
      ],
      "type": "VEC3"
    },
    {
      "bufferView": 2,
      "byteOffset": 39600,
      "componentType": 5126,
      "count": 560,
      "max": [
        0.9951865673065186,
        1.0,
        0.9951865673065186
      ],
      "min": [
        -0.9968109130859375,
        -1.0,
        -0.9951865673065186
      ],
      "type": "VEC3"
    },
    {
      "bufferView": 1,
      "byteOffset": 10960,
      "componentType": 5126,
      "count": 560,
      "max": [
        1.0,
        0.9900000095367432
      ],
      "min": [
        0.0,
        0.0
      ],
      "type": "VEC2"
    },
    {
      "bufferView": 0,
      "byteOffset": 9168,
      "componentType": 5125,
      "count": 1248,
      "type": "SCALAR"
    },
    {
      "bufferView": 2,
      "byteOffset": 46320,
      "componentType": 5126,
      "count": 22,
      "max": [
        -0.8914903402328491,
        2.8582098484039307,
        0.08640000969171524
      ],
      "min": [
        -1.589999794960022,
        1.3731322288513184,
        -0.08640000969171524
      ],
      "type": "VEC3"
    },
    {
      "bufferView": 2,
      "byteOffset": 46584,
      "componentType": 5126,
      "count": 22,
      "max": [
        0.0,
        0.8898206949234009,
        1.0
      ],
      "min": [
        -1.0,
        -0.7442282438278198,
        -1.0
      ],
      "type": "VEC3"
    },
    {
      "bufferView": 1,
      "byteOffset": 15440,
      "componentType": 5126,
      "count": 22,
      "max": [
        0.875,
        1.0
      ],
      "min": [
        0.125,
        0.0
      ],
      "type": "VEC2"
    },
    {
      "bufferView": 0,
      "byteOffset": 14160,
      "componentType": 5125,
      "count": 36,
      "type": "SCALAR"
    },
    {
      "bufferView": 2,
      "byteOffset": 46848,
      "componentType": 5126,
      "count": 22,
      "max": [
        0.08640003204345703,
        2.8582100868225098,
        -0.8914903402328491
      ],
      "min": [
        -0.08640003949403763,
        1.3731319904327393,
        -1.590000033378601
      ],
      "type": "VEC3"
    },
    {
      "bufferView": 2,
      "byteOffset": 47112,
      "componentType": 5126,
      "count": 22,
      "max": [
        1.0,
        0.8898206949234009,
        0.0
      ],
      "min": [
        -1.0,
        -0.7442282438278198,
        -1.0
      ],
      "type": "VEC3"
    },
    {
      "bufferView": 1,
      "byteOffset": 15616,
      "componentType": 5126,
      "count": 22,
      "max": [
        0.875,
        1.0
      ],
      "min": [
        0.125,
        0.0
      ],
      "type": "VEC2"
    },
    {
      "bufferView": 0,
      "byteOffset": 14304,
      "componentType": 5125,
      "count": 36,
      "type": "SCALAR"
    },
    {
      "bufferView": 2,
      "byteOffset": 47376,
      "componentType": 5126,
      "count": 22,
      "max": [
        1.589999794960022,
        2.8582098484039307,
        0.08640006929636002
      ],
      "min": [
        0.8914903402328491,
        1.3731322288513184,
        -0.08640005439519882
      ],
      "type": "VEC3"
    },
    {
      "bufferView": 2,
      "byteOffset": 47640,
      "componentType": 5126,
      "count": 22,
      "max": [
        1.0,
        0.8898206949234009,
        1.0
      ],
      "min": [
        0.0,
        -0.7442282438278198,
        -1.0
      ],
      "type": "VEC3"
    },
    {
      "bufferView": 1,
      "byteOffset": 15792,
      "componentType": 5126,
      "count": 22,
      "max": [
        0.875,
        1.0
      ],
      "min": [
        0.125,
        0.0
      ],
      "type": "VEC2"
    },
    {
      "bufferView": 0,
      "byteOffset": 14448,
      "componentType": 5125,
      "count": 36,
      "type": "SCALAR"
    },
    {
      "bufferView": 2,
      "byteOffset": 47904,
      "componentType": 5126,
      "count": 22,
      "max": [
        0.08640001714229584,
        2.8582100868225098,
        1.590000033378601
      ],
      "min": [
        -0.08640001714229584,
        1.3731319904327393,
        0.8914903402328491
      ],
      "type": "VEC3"
    },
    {
      "bufferView": 2,
      "byteOffset": 48168,
      "componentType": 5126,
      "count": 22,
      "max": [
        1.0,
        0.8898206949234009,
        1.0
      ],
      "min": [
        -1.0,
        -0.7442282438278198,
        0.0
      ],
      "type": "VEC3"
    },
    {
      "bufferView": 1,
      "byteOffset": 15968,
      "componentType": 5126,
      "count": 22,
      "max": [
        0.875,
        1.0
      ],
      "min": [
        0.125,
        0.0
      ],
      "type": "VEC2"
    },
    {
      "bufferView": 0,
      "byteOffset": 14592,
      "componentType": 5125,
      "count": 36,
      "type": "SCALAR"
    },
    {
      "bufferView": 2,
      "byteOffset": 48432,
      "componentType": 5126,
      "count": 24,
      "max": [
        -0.02999989688396454,
        -3.750000238418579,
        1.009390115737915
      ],
      "min": [
        -0.3700000047683716,
        -3.9700002670288086,
        0.4493900239467621
      ],
      "type": "VEC3"
    },
    {
      "bufferView": 2,
      "byteOffset": 48720,
      "componentType": 5126,
      "count": 24,
      "max": [
        1.0,
        1.0,
        1.0
      ],
      "min": [
        -1.0,
        -1.0,
        -1.0
      ],
      "type": "VEC3"
    },
    {
      "bufferView": 1,
      "byteOffset": 16144,
      "componentType": 5126,
      "count": 24,
      "max": [
        0.875,
        1.0
      ],
      "min": [
        0.125,
        0.0
      ],
      "type": "VEC2"
    },
    {
      "bufferView": 0,
      "byteOffset": 14736,
      "componentType": 5125,
      "count": 36,
      "type": "SCALAR"
    },
    {
      "bufferView": 2,
      "byteOffset": 49008,
      "componentType": 5126,
      "count": 24,
      "max": [
        0.3740001916885376,
        -3.748000383377075,
        1.009390115737915
      ],
      "min": [
        -0.03400002419948578,
        -3.7920002937316895,
        0.4493900239467621
      ],
      "type": "VEC3"
    },
    {
      "bufferView": 2,
      "byteOffset": 49296,
      "componentType": 5126,
      "count": 24,
      "max": [
        1.0,
        1.0,
        1.0
      ],
      "min": [
        -1.0,
        -1.0,
        -1.0
      ],
      "type": "VEC3"
    },
    {
      "bufferView": 1,
      "byteOffset": 16336,
      "componentType": 5126,
      "count": 24,
      "max": [
        0.875,
        1.0
      ],
      "min": [
        0.125,
        0.0
      ],
      "type": "VEC2"
    },
    {
      "bufferView": 0,
      "byteOffset": 14880,
      "componentType": 5125,
      "count": 36,
      "type": "SCALAR"
    },
    {
      "bufferView": 2,
      "byteOffset": 49584,
      "componentType": 5126,
      "count": 24,
      "max": [
        0.3740001916885376,
        -3.7980003356933594,
        1.009390115737915
      ],
      "min": [
        -0.03400002419948578,
        -3.8420002460479736,
        0.4493900239467621
      ],
      "type": "VEC3"
    },
    {
      "bufferView": 2,
      "byteOffset": 49872,
      "componentType": 5126,
      "count": 24,
      "max": [
        1.0,
        1.0,
        1.0
      ],
      "min": [
        -1.0,
        -1.0,
        -1.0
      ],
      "type": "VEC3"
    },
    {
      "bufferView": 1,
      "byteOffset": 16528,
      "componentType": 5126,
      "count": 24,
      "max": [
        0.875,
        1.0
      ],
      "min": [
        0.125,
        0.0
      ],
      "type": "VEC2"
    },
    {
      "bufferView": 0,
      "byteOffset": 15024,
      "componentType": 5125,
      "count": 36,
      "type": "SCALAR"
    },
    {
      "bufferView": 2,
      "byteOffset": 50160,
      "componentType": 5126,
      "count": 24,
      "max": [
        0.3740001916885376,
        -3.8680002689361572,
        1.009390115737915
      ],
      "min": [
        -0.03400002419948578,
        -3.9120004177093506,
        0.4493900239467621
      ],
      "type": "VEC3"
    },
    {
      "bufferView": 2,
      "byteOffset": 50448,
      "componentType": 5126,
      "count": 24,
      "max": [
        1.0,
        1.0,
        1.0
      ],
      "min": [
        -1.0,
        -1.0,
        -1.0
      ],
      "type": "VEC3"
    },
    {
      "bufferView": 1,
      "byteOffset": 16720,
      "componentType": 5126,
      "count": 24,
      "max": [
        0.875,
        1.0
      ],
      "min": [
        0.125,
        0.0
      ],
      "type": "VEC2"
    },
    {
      "bufferView": 0,
      "byteOffset": 15168,
      "componentType": 5125,
      "count": 36,
      "type": "SCALAR"
    },
    {
      "bufferView": 2,
      "byteOffset": 50736,
      "componentType": 5126,
      "count": 24,
      "max": [
        0.3740001916885376,
        -3.9249203205108643,
        1.009390115737915
      ],
      "min": [
        -0.03400002419948578,
        -3.9689202308654785,
        0.4493900239467621
      ],
      "type": "VEC3"
    },
    {
      "bufferView": 2,
      "byteOffset": 51024,
      "componentType": 5126,
      "count": 24,
      "max": [
        1.0,
        1.0,
        1.0
      ],
      "min": [
        -1.0,
        -1.0,
        -1.0
      ],
      "type": "VEC3"
    },
    {
      "bufferView": 1,
      "byteOffset": 16912,
      "componentType": 5126,
      "count": 24,
      "max": [
        0.875,
        1.0
      ],
      "min": [
        0.125,
        0.0
      ],
      "type": "VEC2"
    },
    {
      "bufferView": 0,
      "byteOffset": 15312,
      "componentType": 5125,
      "count": 36,
      "type": "SCALAR"
    },
    {
      "bufferView": 2,
      "byteOffset": 51312,
      "componentType": 5126,
      "count": 24,
      "max": [
        0.3740001916885376,
        -4.008880138397217,
        1.009390115737915
      ],
      "min": [
        -0.37400007247924805,
        -4.051120281219482,
        0.4493900239467621
      ],
      "type": "VEC3"
    },
    {
      "bufferView": 2,
      "byteOffset": 51600,
      "componentType": 5126,
      "count": 24,
      "max": [
        1.0,
        1.0,
        1.0
      ],
      "min": [
        -1.0,
        -1.0,
        -1.0
      ],
      "type": "VEC3"
    },
    {
      "bufferView": 1,
      "byteOffset": 17104,
      "componentType": 5126,
      "count": 24,
      "max": [
        0.875,
        1.0
      ],
      "min": [
        0.125,
        0.0
      ],
      "type": "VEC2"
    },
    {
      "bufferView": 0,
      "byteOffset": 15456,
      "componentType": 5125,
      "count": 36,
      "type": "SCALAR"
    },
    {
      "bufferView": 2,
      "byteOffset": 51888,
      "componentType": 5126,
      "count": 24,
      "max": [
        0.3740001916885376,
        -4.05888032913208,
        1.009390115737915
      ],
      "min": [
        -0.37400007247924805,
        -4.101120471954346,
        0.4493900239467621
      ],
      "type": "VEC3"
    },
    {
      "bufferView": 2,
      "byteOffset": 52176,
      "componentType": 5126,
      "count": 24,
      "max": [
        1.0,
        1.0,
        1.0
      ],
      "min": [
        -1.0,
        -1.0,
        -1.0
      ],
      "type": "VEC3"
    },
    {
      "bufferView": 1,
      "byteOffset": 17296,
      "componentType": 5126,
      "count": 24,
      "max": [
        0.875,
        1.0
      ],
      "min": [
        0.125,
        0.0
      ],
      "type": "VEC2"
    },
    {
      "bufferView": 0,
      "byteOffset": 15600,
      "componentType": 5125,
      "count": 36,
      "type": "SCALAR"
    },
    {
      "bufferView": 2,
      "byteOffset": 52464,
      "componentType": 5126,
      "count": 24,
      "max": [
        0.3740001916885376,
        -4.128880500793457,
        1.009390115737915
      ],
      "min": [
        -0.37400007247924805,
        -4.1711201667785645,
        0.4493900239467621
      ],
      "type": "VEC3"
    },
    {
      "bufferView": 2,
      "byteOffset": 52752,
      "componentType": 5126,
      "count": 24,
      "max": [
        1.0,
        1.0,
        1.0
      ],
      "min": [
        -1.0,
        -1.0,
        -1.0
      ],
      "type": "VEC3"
    },
    {
      "bufferView": 1,
      "byteOffset": 17488,
      "componentType": 5126,
      "count": 24,
      "max": [
        0.875,
        1.0
      ],
      "min": [
        0.125,
        0.0
      ],
      "type": "VEC2"
    },
    {
      "bufferView": 0,
      "byteOffset": 15744,
      "componentType": 5125,
      "count": 36,
      "type": "SCALAR"
    },
    {
      "bufferView": 2,
      "byteOffset": 53040,
      "componentType": 5126,
      "count": 192,
      "max": [
        1.0540857315063477,
        -3.2938320636749268,
        1.0540857315063477
      ],
      "min": [
        -1.0540857315063477,
        -3.3570773601531982,
        -1.0540857315063477
      ],
      "type": "VEC3"
    },
    {
      "bufferView": 2,
      "byteOffset": 55344,
      "componentType": 5126,
      "count": 192,
      "max": [
        0.9951865673065186,
        1.0,
        0.9951865673065186
      ],
      "min": [
        -0.9951865673065186,
        -1.0,
        -0.9951865673065186
      ],
      "type": "VEC3"
    },
    {
      "bufferView": 1,
      "byteOffset": 17680,
      "componentType": 5126,
      "count": 192,
      "max": [
        1.0,
        0.9900000095367432
      ],
      "min": [
        0.0,
        0.0
      ],
      "type": "VEC2"
    },
    {
      "bufferView": 0,
      "byteOffset": 15888,
      "componentType": 5125,
      "count": 372,
      "type": "SCALAR"
    },
    {
      "bufferView": 2,
      "byteOffset": 57648,
      "componentType": 5126,
      "count": 780,
      "max": [
        1.005310297012329,
        -9.198160171508789,
        1.005310297012329
      ],
      "min": [
        -1.005310297012329,
        -9.793678283691406,
        -1.005310297012329
      ],
      "type": "VEC3"
    },
    {
      "bufferView": 2,
      "byteOffset": 67008,
      "componentType": 5126,
      "count": 780,
      "max": [
        0.9951865673065186,
        1.0,
        0.9951865673065186
      ],
      "min": [
        -0.9951865673065186,
        -1.0,
        -0.9951865673065186
      ],
      "type": "VEC3"
    },
    {
      "bufferView": 1,
      "byteOffset": 19216,
      "componentType": 5126,
      "count": 780,
      "max": [
        1.0,
        0.9900000095367432
      ],
      "min": [
        0.0,
        0.0
      ],
      "type": "VEC2"
    },
    {
      "bufferView": 0,
      "byteOffset": 17376,
      "componentType": 5125,
      "count": 1140,
      "type": "SCALAR"
    },
    {
      "bufferView": 2,
      "byteOffset": 76368,
      "componentType": 5126,
      "count": 6810,
      "max": [
        0.19718945026397705,
        -5.195471286773682,
        1.0104000568389893
      ],
      "min": [
        -0.18764904141426086,
        -7.640303134918213,
        0.9895999431610107
      ],
      "type": "VEC3"
    },
    {
      "bufferView": 2,
      "byteOffset": 158088,
      "componentType": 5126,
      "count": 6810,
      "max": [
        1.0,
        1.0,
        1.0
      ],
      "min": [
        -1.0,
        -1.0,
        -1.0
      ],
      "type": "VEC3"
    },
    {
      "bufferView": 1,
      "byteOffset": 25456,
      "componentType": 5126,
      "count": 6810,
      "max": [
        1.0,
        1.0
      ],
      "min": [
        0.0,
        0.0
      ],
      "type": "VEC2"
    },
    {
      "bufferView": 0,
      "byteOffset": 21936,
      "componentType": 5125,
      "count": 33720,
      "type": "SCALAR"
    },
    {
      "bufferView": 2,
      "byteOffset": 239808,
      "componentType": 5126,
      "count": 2363,
      "max": [
        0.08316698670387268,
        -0.18588805198669434,
        1.0020999908447266
      ],
      "min": [
        -0.06803484261035919,
        -2.679302215576172,
        0.9979000091552734
      ],
      "type": "VEC3"
    },
    {
      "bufferView": 2,
      "byteOffset": 268164,
      "componentType": 5126,
      "count": 2363,
      "max": [
        0.9999984502792358,
        0.9999991655349731,
        1.0
      ],
      "min": [
        -0.9999995231628418,
        -0.9999997615814209,
        -1.0
      ],
      "type": "VEC3"
    },
    {
      "bufferView": 1,
      "byteOffset": 79936,
      "componentType": 5126,
      "count": 2363,
      "max": [
        1.0,
        1.0
      ],
      "min": [
        0.0,
        0.0
      ],
      "type": "VEC2"
    },
    {
      "bufferView": 0,
      "byteOffset": 156816,
      "componentType": 5125,
      "count": 11454,
      "type": "SCALAR"
    },
    {
      "bufferView": 2,
      "byteOffset": 296520,
      "componentType": 5126,
      "count": 662,
      "max": [
        0.10000033676624298,
        1.330749750137329,
        -0.8014730215072632
      ],
      "min": [
        -0.10000002384185791,
        -4.262044429779053,
        -1.100000023841858
      ],
      "type": "VEC3"
    },
    {
      "bufferView": 2,
      "byteOffset": 304464,
      "componentType": 5126,
      "count": 662,
      "max": [
        0.9959465861320496,
        1.0,
        0.9954987168312073
      ],
      "min": [
        -0.9961740374565125,
        -1.0,
        -0.9954477548599243
      ],
      "type": "VEC3"
    },
    {
      "bufferView": 1,
      "byteOffset": 98840,
      "componentType": 5126,
      "count": 662,
      "max": [
        1.0,
        0.9900000095367432
      ],
      "min": [
        0.0,
        -1.1920928955078125e-07
      ],
      "type": "VEC2"
    },
    {
      "bufferView": 0,
      "byteOffset": 202632,
      "componentType": 5125,
      "count": 1038,
      "type": "SCALAR"
    },
    {
      "bufferView": 2,
      "byteOffset": 312408,
      "componentType": 5126,
      "count": 652,
      "max": [
        0.10000038892030716,
        -4.191782474517822,
        -0.7275255918502808
      ],
      "min": [
        -0.10000038892030716,
        -9.83708667755127,
        -1.100000023841858
      ],
      "type": "VEC3"
    },
    {
      "bufferView": 2,
      "byteOffset": 320232,
      "componentType": 5126,
      "count": 652,
      "max": [
        0.9955384731292725,
        1.0,
        0.9954987168312073
      ],
      "min": [
        -0.9955301880836487,
        -0.7072067856788635,
        -0.9954477548599243
      ],
      "type": "VEC3"
    },
    {
      "bufferView": 1,
      "byteOffset": 104136,
      "componentType": 5126,
      "count": 652,
      "max": [
        1.0,
        0.9900000095367432
      ],
      "min": [
        0.0,
        0.0
      ],
      "type": "VEC2"
    },
    {
      "bufferView": 0,
      "byteOffset": 206784,
      "componentType": 5125,
      "count": 948,
      "type": "SCALAR"
    },
    {
      "bufferView": 2,
      "byteOffset": 328056,
      "componentType": 5126,
      "count": 202,
      "max": [
        1.0540857315063477,
        -10.093832969665527,
        1.0540857315063477
      ],
      "min": [
        -1.0540857315063477,
        -10.157078742980957,
        -1.0540857315063477
      ],
      "type": "VEC3"
    },
    {
      "bufferView": 2,
      "byteOffset": 330480,
      "componentType": 5126,
      "count": 202,
      "max": [
        0.9951865673065186,
        1.0,
        0.9951865673065186
      ],
      "min": [
        -0.9951865673065186,
        -1.0,
        -0.9951865673065186
      ],
      "type": "VEC3"
    },
    {
      "bufferView": 1,
      "byteOffset": 109352,
      "componentType": 5126,
      "count": 202,
      "max": [
        1.0,
        0.9900000095367432
      ],
      "min": [
        0.0,
        0.0
      ],
      "type": "VEC2"
    },
    {
      "bufferView": 0,
      "byteOffset": 210576,
      "componentType": 5125,
      "count": 372,
      "type": "SCALAR"
    },
    {
      "bufferView": 2,
      "byteOffset": 332904,
      "componentType": 5126,
      "count": 192,
      "max": [
        1.213478922843933,
        -10.789050102233887,
        1.213478922843933
      ],
      "min": [
        -1.213478922843933,
        -10.861859321594238,
        -1.213478922843933
      ],
      "type": "VEC3"
    },
    {
      "bufferView": 2,
      "byteOffset": 335208,
      "componentType": 5126,
      "count": 192,
      "max": [
        0.9951865673065186,
        1.0,
        0.9951865673065186
      ],
      "min": [
        -0.9951865673065186,
        -1.0,
        -0.9951865673065186
      ],
      "type": "VEC3"
    },
    {
      "bufferView": 1,
      "byteOffset": 110968,
      "componentType": 5126,
      "count": 192,
      "max": [
        1.0,
        0.9900000095367432
      ],
      "min": [
        0.0,
        0.0
      ],
      "type": "VEC2"
    },
    {
      "bufferView": 0,
      "byteOffset": 212064,
      "componentType": 5125,
      "count": 372,
      "type": "SCALAR"
    },
    {
      "bufferView": 2,
      "byteOffset": 337512,
      "componentType": 5126,
      "count": 192,
      "max": [
        1.213478922843933,
        -11.289050102233887,
        1.213478922843933
      ],
      "min": [
        -1.213478922843933,
        -11.361859321594238,
        -1.213478922843933
      ],
      "type": "VEC3"
    },
    {
      "bufferView": 2,
      "byteOffset": 339816,
      "componentType": 5126,
      "count": 192,
      "max": [
        0.9951865673065186,
        1.0,
        0.9951865673065186
      ],
      "min": [
        -0.9951865673065186,
        -1.0,
        -0.9951865673065186
      ],
      "type": "VEC3"
    },
    {
      "bufferView": 1,
      "byteOffset": 112504,
      "componentType": 5126,
      "count": 192,
      "max": [
        1.0,
        0.9900000095367432
      ],
      "min": [
        0.0,
        0.0
      ],
      "type": "VEC2"
    },
    {
      "bufferView": 0,
      "byteOffset": 213552,
      "componentType": 5125,
      "count": 372,
      "type": "SCALAR"
    },
    {
      "bufferView": 2,
      "byteOffset": 342120,
      "componentType": 5126,
      "count": 1028,
      "max": [
        0.3148013949394226,
        -11.512859344482422,
        0.31494376063346863
      ],
      "min": [
        -0.3148011863231659,
        -12.653867721557617,
        -0.31465911865234375
      ],
      "type": "VEC3"
    },
    {
      "bufferView": 2,
      "byteOffset": 354456,
      "componentType": 5126,
      "count": 1028,
      "max": [
        0.9948198795318604,
        0.9411821961402893,
        0.9948198795318604
      ],
      "min": [
        -0.9948198795318604,
        0.026999615132808685,
        -0.9948198795318604
      ],
      "type": "VEC3"
    },
    {
      "bufferView": 1,
      "byteOffset": 114040,
      "componentType": 5126,
      "count": 1028,
      "max": [
        1.0,
        0.49942147731781006
      ],
      "min": [
        0.0,
        0.0
      ],
      "type": "VEC2"
    },
    {
      "bufferView": 0,
      "byteOffset": 215040,
      "componentType": 5125,
      "count": 1440,
      "type": "SCALAR"
    },
    {
      "bufferView": 2,
      "byteOffset": 366792,
      "componentType": 5126,
      "count": 1032,
      "max": [
        0.3148013949394226,
        -11.512859344482422,
        1.0149437189102173
      ],
      "min": [
        -0.3148011863231659,
        -12.653867721557617,
        0.3853408694267273
      ],
      "type": "VEC3"
    },
    {
      "bufferView": 2,
      "byteOffset": 379176,
      "componentType": 5126,
      "count": 1032,
      "max": [
        0.9948198795318604,
        0.9411763548851013,
        0.9948198795318604
      ],
      "min": [
        -0.9948198795318604,
        0.026999615132808685,
        -0.9948198795318604
      ],
      "type": "VEC3"
    },
    {
      "bufferView": 1,
      "byteOffset": 122264,
      "componentType": 5126,
      "count": 1032,
      "max": [
        1.0,
        0.49942147731781006
      ],
      "min": [
        0.0,
        0.0
      ],
      "type": "VEC2"
    },
    {
      "bufferView": 0,
      "byteOffset": 220800,
      "componentType": 5125,
      "count": 1440,
      "type": "SCALAR"
    },
    {
      "bufferView": 2,
      "byteOffset": 391560,
      "componentType": 5126,
      "count": 1032,
      "max": [
        0.3148013949394226,
        -11.512859344482422,
        -0.3850562274456024
      ],
      "min": [
        -0.3148011863231659,
        -12.653867721557617,
        -1.0146591663360596
      ],
      "type": "VEC3"
    },
    {
      "bufferView": 2,
      "byteOffset": 403944,
      "componentType": 5126,
      "count": 1032,
      "max": [
        0.9948198795318604,
        0.9411763548851013,
        0.9948198795318604
      ],
      "min": [
        -0.9948198795318604,
        0.026999615132808685,
        -0.9948198795318604
      ],
      "type": "VEC3"
    },
    {
      "bufferView": 1,
      "byteOffset": 130520,
      "componentType": 5126,
      "count": 1032,
      "max": [
        1.0,
        0.49942147731781006
      ],
      "min": [
        0.0,
        0.0
      ],
      "type": "VEC2"
    },
    {
      "bufferView": 0,
      "byteOffset": 226560,
      "componentType": 5125,
      "count": 1440,
      "type": "SCALAR"
    },
    {
      "bufferView": 2,
      "byteOffset": 416328,
      "componentType": 5126,
      "count": 1020,
      "max": [
        0.9148017764091492,
        -11.512859344482422,
        0.6149437427520752
      ],
      "min": [
        0.28519919514656067,
        -12.653867721557617,
        -0.014659106731414795
      ],
      "type": "VEC3"
    },
    {
      "bufferView": 2,
      "byteOffset": 428568,
      "componentType": 5126,
      "count": 1020,
      "max": [
        0.9948198795318604,
        0.9411821961402893,
        0.9948198795318604
      ],
      "min": [
        -0.9948198795318604,
        0.026999615132808685,
        -0.9948198795318604
      ],
      "type": "VEC3"
    },
    {
      "bufferView": 1,
      "byteOffset": 138776,
      "componentType": 5126,
      "count": 1020,
      "max": [
        1.0,
        0.49942147731781006
      ],
      "min": [
        0.0,
        0.0
      ],
      "type": "VEC2"
    },
    {
      "bufferView": 0,
      "byteOffset": 232320,
      "componentType": 5125,
      "count": 1440,
      "type": "SCALAR"
    },
    {
      "bufferView": 2,
      "byteOffset": 440808,
      "componentType": 5126,
      "count": 1020,
      "max": [
        -0.28519850969314575,
        -11.512859344482422,
        0.6149437427520752
      ],
      "min": [
        -0.9148011207580566,
        -12.653867721557617,
        -0.014659106731414795
      ],
      "type": "VEC3"
    },
    {
      "bufferView": 2,
      "byteOffset": 453048,
      "componentType": 5126,
      "count": 1020,
      "max": [
        0.9948198795318604,
        0.9411821961402893,
        0.9948198795318604
      ],
      "min": [
        -0.9948198795318604,
        0.026999615132808685,
        -0.9948198795318604
      ],
      "type": "VEC3"
    },
    {
      "bufferView": 1,
      "byteOffset": 146936,
      "componentType": 5126,
      "count": 1020,
      "max": [
        1.0,
        0.49942147731781006
      ],
      "min": [
        0.0,
        0.0
      ],
      "type": "VEC2"
    },
    {
      "bufferView": 0,
      "byteOffset": 238080,
      "componentType": 5125,
      "count": 1440,
      "type": "SCALAR"
    },
    {
      "bufferView": 2,
      "byteOffset": 465288,
      "componentType": 5126,
      "count": 1024,
      "max": [
        -0.28519850969314575,
        -11.512859344482422,
        -0.08505624532699585
      ],
      "min": [
        -0.9148011207580566,
        -12.653867721557617,
        -0.7146590948104858
      ],
      "type": "VEC3"
    },
    {
      "bufferView": 2,
      "byteOffset": 477576,
      "componentType": 5126,
      "count": 1024,
      "max": [
        0.9948198795318604,
        0.9411821961402893,
        0.9948198795318604
      ],
      "min": [
        -0.9948198795318604,
        0.026999615132808685,
        -0.9948198795318604
      ],
      "type": "VEC3"
    },
    {
      "bufferView": 1,
      "byteOffset": 155096,
      "componentType": 5126,
      "count": 1024,
      "max": [
        1.0,
        0.49942147731781006
      ],
      "min": [
        0.0,
        0.0
      ],
      "type": "VEC2"
    },
    {
      "bufferView": 0,
      "byteOffset": 243840,
      "componentType": 5125,
      "count": 1440,
      "type": "SCALAR"
    },
    {
      "bufferView": 2,
      "byteOffset": 489864,
      "componentType": 5126,
      "count": 1022,
      "max": [
        0.9148017764091492,
        -11.512859344482422,
        -0.08505624532699585
      ],
      "min": [
        0.28519919514656067,
        -12.653867721557617,
        -0.7146590948104858
      ],
      "type": "VEC3"
    },
    {
      "bufferView": 2,
      "byteOffset": 502128,
      "componentType": 5126,
      "count": 1022,
      "max": [
        0.9948198795318604,
        0.9411821961402893,
        0.9948198795318604
      ],
      "min": [
        -0.9948198795318604,
        0.026999615132808685,
        -0.9948198795318604
      ],
      "type": "VEC3"
    },
    {
      "bufferView": 1,
      "byteOffset": 163288,
      "componentType": 5126,
      "count": 1022,
      "max": [
        1.0,
        0.49942147731781006
      ],
      "min": [
        0.0,
        0.0
      ],
      "type": "VEC2"
    },
    {
      "bufferView": 0,
      "byteOffset": 249600,
      "componentType": 5125,
      "count": 1440,
      "type": "SCALAR"
    },
    {
      "bufferView": 2,
      "byteOffset": 514392,
      "componentType": 5126,
      "count": 2860,
      "max": [
        1.0,
        9.70370101928711,
        1.0
      ],
      "min": [
        -1.0000001192092896,
        -1.6212353706359863,
        -1.0
      ],
      "type": "VEC3"
    },
    {
      "bufferView": 2,
      "byteOffset": 548712,
      "componentType": 5126,
      "count": 2860,
      "max": [
        0.9951865673065186,
        1.0,
        0.9951865673065186
      ],
      "min": [
        -0.9951865673065186,
        -1.0,
        -0.9951865673065186
      ],
      "type": "VEC3"
    },
    {
      "bufferView": 1,
      "byteOffset": 171464,
      "componentType": 5126,
      "count": 2860,
      "max": [
        1.0,
        1.0
      ],
      "min": [
        0.0,
        0.0
      ],
      "type": "VEC2"
    },
    {
      "bufferView": 0,
      "byteOffset": 255360,
      "componentType": 5125,
      "count": 4404,
      "type": "SCALAR"
    },
    {
      "bufferView": 2,
      "byteOffset": 583032,
      "componentType": 5126,
      "count": 1012,
      "max": [
        -0.11075413227081299,
        -1.4426369667053223,
        0.31494376063346863
      ],
      "min": [
        -0.7403566837310791,
        -2.5836448669433594,
        -0.31465911865234375
      ],
      "type": "VEC3"
    },
    {
      "bufferView": 2,
      "byteOffset": 595176,
      "componentType": 5126,
      "count": 1012,
      "max": [
        0.9948198795318604,
        0.9411563277244568,
        0.9948198795318604
      ],
      "min": [
        -0.9948198795318604,
        0.026999615132808685,
        -0.9948198795318604
      ],
      "type": "VEC3"
    },
    {
      "bufferView": 1,
      "byteOffset": 194344,
      "componentType": 5126,
      "count": 1012,
      "max": [
        1.0,
        0.49942147731781006
      ],
      "min": [
        0.0,
        0.0
      ],
      "type": "VEC2"
    },
    {
      "bufferView": 0,
      "byteOffset": 272976,
      "componentType": 5125,
      "count": 1440,
      "type": "SCALAR"
    },
    {
      "bufferView": 2,
      "byteOffset": 607320,
      "componentType": 5126,
      "count": 1006,
      "max": [
        0.7687273025512695,
        -1.4426369667053223,
        0.31494376063346863
      ],
      "min": [
        0.13912472128868103,
        -2.5836448669433594,
        -0.31465911865234375
      ],
      "type": "VEC3"
    },
    {
      "bufferView": 2,
      "byteOffset": 619392,
      "componentType": 5126,
      "count": 1006,
      "max": [
        0.9948198795318604,
        0.9411563277244568,
        0.9948198795318604
      ],
      "min": [
        -0.9948198795318604,
        0.026999615132808685,
        -0.9948198795318604
      ],
      "type": "VEC3"
    },
    {
      "bufferView": 1,
      "byteOffset": 202440,
      "componentType": 5126,
      "count": 1006,
      "max": [
        1.0,
        0.49942147731781006
      ],
      "min": [
        0.0,
        0.0
      ],
      "type": "VEC2"
    },
    {
      "bufferView": 0,
      "byteOffset": 278736,
      "componentType": 5125,
      "count": 1440,
      "type": "SCALAR"
    }
  ],
  "asset": {
    "extras": {
      "author": "Wolfpack278 (https://sketchfab.com/wolfpack278)",
      "license": "CC-BY-4.0 (http://creativecommons.org/licenses/by/4.0/)",
      "source": "https://sketchfab.com/3d-models/new-glenn-better-version-683e8141a0604393bd0659d09de69d62",
      "title": "New Glenn (Better Version)"
    },
    "generator": "Sketchfab-16.85.0",
    "version": "2.0"
  },
  "bufferViews": [
    {
      "buffer": 0,
      "byteLength": 284496,
      "name": "floatBufferViews",
      "target": 34963
    },
    {
      "buffer": 0,
      "byteLength": 210488,
      "byteOffset": 284496,
      "byteStride": 8,
      "name": "floatBufferViews",
      "target": 34962
    },
    {
      "buffer": 0,
      "byteLength": 631464,
      "byteOffset": 494984,
      "byteStride": 12,
      "name": "floatBufferViews",
      "target": 34962
    }
  ],
  "buffers": [
    {
      "byteLength": 1126448,
      "uri": "scene.bin"
    }
  ],
  "materials": [
    {
      "doubleSided": true,
      "name": "material_0",
      "pbrMetallicRoughness": {
        "metallicFactor": 0.0,
        "roughnessFactor": 0.6
      }
    },
    {
      "doubleSided": true,
      "name": "Material.016",
      "pbrMetallicRoughness": {
        "baseColorFactor": [
          0.266357,
          0.11954,
          0.0368897,
          1.0
        ],
        "metallicFactor": 0.0,
        "roughnessFactor": 0.5
      }
    },
    {
      "doubleSided": true,
      "name": "Material.015",
      "pbrMetallicRoughness": {
        "baseColorFactor": [
          0.283153,
          0.130139,
          0.0423106,
          1.0
        ],
        "metallicFactor": 0.0,
        "roughnessFactor": 0.5
      }
    },
    {
      "doubleSided": true,
      "name": "Material.014",
      "pbrMetallicRoughness": {
        "baseColorFactor": [
          0.278898,
          0.130139,
          0.0409144,
          1.0
        ],
        "metallicFactor": 0.0,
        "roughnessFactor": 0.5
      }
    },
    {
      "doubleSided": true,
      "name": "Material.009",
      "pbrMetallicRoughness": {
        "baseColorFactor": [
          0.281026,
          0.130139,
          0.0416125,
          1.0
        ],
        "metallicFactor": 0.0,
        "roughnessFactor": 0.5
      }
    },
    {
      "doubleSided": true,
      "name": "Material.012",
      "pbrMetallicRoughness": {
        "baseColorFactor": [
          0.262251,
          0.124774,
          0.0382041,
          1.0
        ],
        "metallicFactor": 0.0,
        "roughnessFactor": 0.5
      }
    },
    {
      "doubleSided": true,
      "name": "Material.013",
      "pbrMetallicRoughness": {
        "baseColorFactor": [
          0.278898,
          0.130139,
          0.0409144,
          1.0
        ],
        "metallicFactor": 0.0,
        "roughnessFactor": 0.5
      }
    },
    {
      "doubleSided": true,
      "name": "Material.010",
      "pbrMetallicRoughness": {
        "baseColorFactor": [
          0.278898,
          0.12744,
          0.0409144,
          1.0
        ],
        "metallicFactor": 0.0,
        "roughnessFactor": 0.5
      }
    },
    {
      "doubleSided": true,
      "name": "Material.011",
      "pbrMetallicRoughness": {
        "baseColorFactor": [
          0.27468,
          0.124774,
          0.0388749,
          1.0
        ],
        "metallicFactor": 0.0,
        "roughnessFactor": 0.5
      }
    },
    {
      "doubleSided": true,
      "name": "Material.001",
      "pbrMetallicRoughness": {
        "baseColorFactor": [
          0.0140494,
          0.0291296,
          0.800007,
          1.0
        ],
        "metallicFactor": 0.0,
        "roughnessFactor": 0.5
      }
    },
    {
      "doubleSided": true,
      "name": "Material.002",
      "pbrMetallicRoughness": {
        "baseColorFactor": [
          0.800007,
          0.012357,
          0.0105223,
          1.0
        ],
        "metallicFactor": 0.0,
        "roughnessFactor": 0.5
      }
    },
    {
      "doubleSided": true,
      "name": "Material.003",
      "pbrMetallicRoughness": {
        "baseColorFactor": [
          0.869629,
          0.0309906,
          0.0307465,
          1.0
        ],
        "metallicFactor": 0.0,
        "roughnessFactor": 0.5
      }
    },
    {
      "doubleSided": true,
      "name": "Material.004",
      "pbrMetallicRoughness": {
        "baseColorFactor": [
          0.869141,
          0.0306396,
          0.0306091,
          1.0
        ],
        "metallicFactor": 0.0,
        "roughnessFactor": 0.5
      }
    },
    {
      "doubleSided": true,
      "name": "Material.005",
      "pbrMetallicRoughness": {
        "baseColorFactor": [
          0.869629,
          0.030983,
          0.0307007,
          1.0
        ],
        "metallicFactor": 0.0,
        "roughnessFactor": 0.5
      }
    },
    {
      "doubleSided": true,
      "name": "Material.006",
      "pbrMetallicRoughness": {
        "baseColorFactor": [
          0.869629,
          0.0307922,
          0.0307007,
          1.0
        ],
        "metallicFactor": 0.0,
        "roughnessFactor": 0.5
      }
    },
    {
      "doubleSided": true,
      "name": "Material.007",
      "pbrMetallicRoughness": {
        "baseColorFactor": [
          0.869141,
          0.0309448,
          0.0307312,
          1.0
        ],
        "metallicFactor": 0.0,
        "roughnessFactor": 0.5
      }
    },
    {
      "doubleSided": true,
      "name": "Material.008",
      "pbrMetallicRoughness": {
        "baseColorFactor": [
          0.869141,
          0.0303192,
          0.0298716,
          1.0
        ],
        "metallicFactor": 0.0,
        "roughnessFactor": 0.5
      }
    },
    {
      "doubleSided": true,
      "name": "Material.021",
      "pbrMetallicRoughness": {
        "baseColorFactor": [
          0.40763,
          0.40763,
          0.40763,
          1.0
        ],
        "metallicFactor": 0.0,
        "roughnessFactor": 0.5
      }
    },
    {
      "doubleSided": true,
      "name": "Material.018",
      "pbrMetallicRoughness": {
        "baseColorFactor": [
          0.00611004,
          0.0248121,
          0.800007,
          1.0
        ],
        "metallicFactor": 0.0,
        "roughnessFactor": 0.5
      }
    },
    {
      "doubleSided": true,
      "name": "Material.020",
      "pbrMetallicRoughness": {
        "baseColorFactor": [
          0.0283159,
          0.095367,
          0.800007,
          1.0
        ],
        "metallicFactor": 0.0,
        "roughnessFactor": 0.5
      }
    },
    {
      "doubleSided": true,
      "name": "Material.019",
      "pbrMetallicRoughness": {
        "baseColorFactor": [
          0.0201134,
          0.0308141,
          0.800007,
          1.0
        ],
        "metallicFactor": 0.0,
        "roughnessFactor": 0.5
      }
    },
    {
      "doubleSided": true,
      "name": "Material.022",
      "pbrMetallicRoughness": {
        "baseColorFactor": [
          0.289837,
          0.134452,
          0.0438587,
          1.0
        ],
        "metallicFactor": 0.0,
        "roughnessFactor": 0.5
      }
    },
    {
      "doubleSided": true,
      "name": "Material.023",
      "pbrMetallicRoughness": {
        "baseColorFactor": [
          0.289837,
          0.134452,
          0.0438587,
          1.0
        ],
        "metallicFactor": 0.0,
        "roughnessFactor": 0.5
      }
    },
    {
      "doubleSided": true,
      "name": "Material.024",
      "pbrMetallicRoughness": {
        "baseColorFactor": [
          0.0,
          0.0,
          0.0,
          1.0
        ],
        "metallicFactor": 0.0,
        "roughnessFactor": 0.5
      }
    },
    {
      "doubleSided": true,
      "name": "Material.025",
      "pbrMetallicRoughness": {
        "baseColorFactor": [
          0.0,
          0.0,
          0.0,
          1.0
        ],
        "metallicFactor": 0.0,
        "roughnessFactor": 0.5
      }
    },
    {
      "doubleSided": true,
      "name": "Material.026",
      "pbrMetallicRoughness": {
        "baseColorFactor": [
          0.0,
          0.0,
          0.0,
          1.0
        ],
        "metallicFactor": 0.0,
        "roughnessFactor": 0.5
      }
    },
    {
      "doubleSided": true,
      "name": "Material.027",
      "pbrMetallicRoughness": {
        "baseColorFactor": [
          0.0282058,
          0.0282058,
          0.0282058,
          1.0
        ],
        "metallicFactor": 0.0,
        "roughnessFactor": 0.5
      }
    },
    {
      "doubleSided": true,
      "name": "Material.028",
      "pbrMetallicRoughness": {
        "baseColorFactor": [
          0.0282058,
          0.0282058,
          0.0282058,
          1.0
        ],
        "metallicFactor": 0.0,
        "roughnessFactor": 0.5
      }
    },
    {
      "doubleSided": true,
      "name": "Material.029",
      "pbrMetallicRoughness": {
        "baseColorFactor": [
          0.0282058,
          0.0282058,
          0.0282058,
          1.0
        ],
        "metallicFactor": 0.0,
        "roughnessFactor": 0.5
      }
    },
    {
      "doubleSided": true,
      "name": "Material.030",
      "pbrMetallicRoughness": {
        "baseColorFactor": [
          0.0282058,
          0.0282058,
          0.0282058,
          1.0
        ],
        "metallicFactor": 0.0,
        "roughnessFactor": 0.5
      }
    },
    {
      "doubleSided": true,
      "name": "Material.031",
      "pbrMetallicRoughness": {
        "baseColorFactor": [
          0.0282058,
          0.0282058,
          0.0282058,
          1.0
        ],
        "metallicFactor": 0.0,
        "roughnessFactor": 0.5
      }
    },
    {
      "doubleSided": true,
      "name": "Material.033",
      "pbrMetallicRoughness": {
        "baseColorFactor": [
          0.0282058,
          0.0282058,
          0.0282058,
          1.0
        ],
        "metallicFactor": 0.0,
        "roughnessFactor": 0.5
      }
    },
    {
      "doubleSided": true,
      "name": "Material.034",
      "pbrMetallicRoughness": {
        "baseColorFactor": [
          0.0282058,
          0.0282058,
          0.0282058,
          1.0
        ],
        "metallicFactor": 0.0,
        "roughnessFactor": 0.5
      }
    },
    {
      "doubleSided": true,
      "name": "Material.035",
      "pbrMetallicRoughness": {
        "baseColorFactor": [
          0.0282058,
          0.0282058,
          0.0282058,
          1.0
        ],
        "metallicFactor": 0.0,
        "roughnessFactor": 0.5
      }
    },
    {
      "doubleSided": true,
      "name": "Material.036",
      "pbrMetallicRoughness": {
        "baseColorFactor": [
          0.0282058,
          0.0282058,
          0.0282058,
          1.0
        ],
        "metallicFactor": 0.0,
        "roughnessFactor": 0.5
      }
    }
  ],
  "meshes": [
    {
      "name": "Object_0",
      "primitives": [
        {
          "attributes": {
            "NORMAL": 1,
            "POSITION": 0,
            "TEXCOORD_0": 2
          },
          "indices": 3,
          "material": 0,
          "mode": 4
        }
      ]
    },
    {
      "name": "Object_1",
      "primitives": [
        {
          "attributes": {
            "NORMAL": 5,
            "POSITION": 4,
            "TEXCOORD_0": 6
          },
          "indices": 7,
          "material": 1,
          "mode": 4
        }
      ]
    },
    {
      "name": "Object_2",
      "primitives": [
        {
          "attributes": {
            "NORMAL": 9,
            "POSITION": 8,
            "TEXCOORD_0": 10
          },
          "indices": 11,
          "material": 2,
          "mode": 4
        }
      ]
    },
    {
      "name": "Object_3",
      "primitives": [
        {
          "attributes": {
            "NORMAL": 13,
            "POSITION": 12,
            "TEXCOORD_0": 14
          },
          "indices": 15,
          "material": 3,
          "mode": 4
        }
      ]
    },
    {
      "name": "Object_4",
      "primitives": [
        {
          "attributes": {
            "NORMAL": 17,
            "POSITION": 16,
            "TEXCOORD_0": 18
          },
          "indices": 19,
          "material": 4,
          "mode": 4
        }
      ]
    },
    {
      "name": "Object_5",
      "primitives": [
        {
          "attributes": {
            "NORMAL": 21,
            "POSITION": 20,
            "TEXCOORD_0": 22
          },
          "indices": 23,
          "material": 5,
          "mode": 4
        }
      ]
    },
    {
      "name": "Object_6",
      "primitives": [
        {
          "attributes": {
            "NORMAL": 25,
            "POSITION": 24,
            "TEXCOORD_0": 26
          },
          "indices": 27,
          "material": 6,
          "mode": 4
        }
      ]
    },
    {
      "name": "Object_7",
      "primitives": [
        {
          "attributes": {
            "NORMAL": 29,
            "POSITION": 28,
            "TEXCOORD_0": 30
          },
          "indices": 31,
          "material": 7,
          "mode": 4
        }
      ]
    },
    {
      "name": "Object_8",
      "primitives": [
        {
          "attributes": {
            "NORMAL": 33,
            "POSITION": 32,
            "TEXCOORD_0": 34
          },
          "indices": 35,
          "material": 8,
          "mode": 4
        }
      ]
    },
    {
      "name": "Object_9",
      "primitives": [
        {
          "attributes": {
            "NORMAL": 37,
            "POSITION": 36,
            "TEXCOORD_0": 38
          },
          "indices": 39,
          "material": 9,
          "mode": 4
        }
      ]
    },
    {
      "name": "Object_10",
      "primitives": [
        {
          "attributes": {
            "NORMAL": 41,
            "POSITION": 40,
            "TEXCOORD_0": 42
          },
          "indices": 43,
          "material": 10,
          "mode": 4
        }
      ]
    },
    {
      "name": "Object_11",
      "primitives": [
        {
          "attributes": {
            "NORMAL": 45,
            "POSITION": 44,
            "TEXCOORD_0": 46
          },
          "indices": 47,
          "material": 11,
          "mode": 4
        }
      ]
    },
    {
      "name": "Object_12",
      "primitives": [
        {
          "attributes": {
            "NORMAL": 49,
            "POSITION": 48,
            "TEXCOORD_0": 50
          },
          "indices": 51,
          "material": 12,
          "mode": 4
        }
      ]
    },
    {
      "name": "Object_13",
      "primitives": [
        {
          "attributes": {
            "NORMAL": 53,
            "POSITION": 52,
            "TEXCOORD_0": 54
          },
          "indices": 55,
          "material": 13,
          "mode": 4
        }
      ]
    },
    {
      "name": "Object_14",
      "primitives": [
        {
          "attributes": {
            "NORMAL": 57,
            "POSITION": 56,
            "TEXCOORD_0": 58
          },
          "indices": 59,
          "material": 14,
          "mode": 4
        }
      ]
    },
    {
      "name": "Object_15",
      "primitives": [
        {
          "attributes": {
            "NORMAL": 61,
            "POSITION": 60,
            "TEXCOORD_0": 62
          },
          "indices": 63,
          "material": 15,
          "mode": 4
        }
      ]
    },
    {
      "name": "Object_16",
      "primitives": [
        {
          "attributes": {
            "NORMAL": 65,
            "POSITION": 64,
            "TEXCOORD_0": 66
          },
          "indices": 67,
          "material": 16,
          "mode": 4
        }
      ]
    },
    {
      "name": "Object_17",
      "primitives": [
        {
          "attributes": {
            "NORMAL": 69,
            "POSITION": 68,
            "TEXCOORD_0": 70
          },
          "indices": 71,
          "material": 17,
          "mode": 4
        }
      ]
    },
    {
      "name": "Object_18",
      "primitives": [
        {
          "attributes": {
            "NORMAL": 73,
            "POSITION": 72,
            "TEXCOORD_0": 74
          },
          "indices": 75,
          "material": 18,
          "mode": 4
        }
      ]
    },
    {
      "name": "Object_19",
      "primitives": [
        {
          "attributes": {
            "NORMAL": 77,
            "POSITION": 76,
            "TEXCOORD_0": 78
          },
          "indices": 79,
          "material": 19,
          "mode": 4
        }
      ]
    },
    {
      "name": "Object_20",
      "primitives": [
        {
          "attributes": {
            "NORMAL": 81,
            "POSITION": 80,
            "TEXCOORD_0": 82
          },
          "indices": 83,
          "material": 20,
          "mode": 4
        }
      ]
    },
    {
      "name": "Object_21",
      "primitives": [
        {
          "attributes": {
            "NORMAL": 85,
            "POSITION": 84,
            "TEXCOORD_0": 86
          },
          "indices": 87,
          "material": 21,
          "mode": 4
        }
      ]
    },
    {
      "name": "Object_22",
      "primitives": [
        {
          "attributes": {
            "NORMAL": 89,
            "POSITION": 88,
            "TEXCOORD_0": 90
          },
          "indices": 91,
          "material": 22,
          "mode": 4
        }
      ]
    },
    {
      "name": "Object_23",
      "primitives": [
        {
          "attributes": {
            "NORMAL": 93,
            "POSITION": 92,
            "TEXCOORD_0": 94
          },
          "indices": 95,
          "material": 23,
          "mode": 4
        }
      ]
    },
    {
      "name": "Object_24",
      "primitives": [
        {
          "attributes": {
            "NORMAL": 97,
            "POSITION": 96,
            "TEXCOORD_0": 98
          },
          "indices": 99,
          "material": 24,
          "mode": 4
        }
      ]
    },
    {
      "name": "Object_25",
      "primitives": [
        {
          "attributes": {
            "NORMAL": 101,
            "POSITION": 100,
            "TEXCOORD_0": 102
          },
          "indices": 103,
          "material": 25,
          "mode": 4
        }
      ]
    },
    {
      "name": "Object_26",
      "primitives": [
        {
          "attributes": {
            "NORMAL": 105,
            "POSITION": 104,
            "TEXCOORD_0": 106
          },
          "indices": 107,
          "material": 26,
          "mode": 4
        }
      ]
    },
    {
      "name": "Object_27",
      "primitives": [
        {
          "attributes": {
            "NORMAL": 109,
            "POSITION": 108,
            "TEXCOORD_0": 110
          },
          "indices": 111,
          "material": 27,
          "mode": 4
        }
      ]
    },
    {
      "name": "Object_28",
      "primitives": [
        {
          "attributes": {
            "NORMAL": 113,
            "POSITION": 112,
            "TEXCOORD_0": 114
          },
          "indices": 115,
          "material": 28,
          "mode": 4
        }
      ]
    },
    {
      "name": "Object_29",
      "primitives": [
        {
          "attributes": {
            "NORMAL": 117,
            "POSITION": 116,
            "TEXCOORD_0": 118
          },
          "indices": 119,
          "material": 29,
          "mode": 4
        }
      ]
    },
    {
      "name": "Object_30",
      "primitives": [
        {
          "attributes": {
            "NORMAL": 121,
            "POSITION": 120,
            "TEXCOORD_0": 122
          },
          "indices": 123,
          "material": 30,
          "mode": 4
        }
      ]
    },
    {
      "name": "Object_31",
      "primitives": [
        {
          "attributes": {
            "NORMAL": 125,
            "POSITION": 124,
            "TEXCOORD_0": 126
          },
          "indices": 127,
          "material": 31,
          "mode": 4
        }
      ]
    },
    {
      "name": "Object_32",
      "primitives": [
        {
          "attributes": {
            "NORMAL": 129,
            "POSITION": 128,
            "TEXCOORD_0": 130
          },
          "indices": 131,
          "material": 32,
          "mode": 4
        }
      ]
    },
    {
      "name": "Object_33",
      "primitives": [
        {
          "attributes": {
            "NORMAL": 133,
            "POSITION": 132,
            "TEXCOORD_0": 134
          },
          "indices": 135,
          "material": 0,
          "mode": 4
        }
      ]
    },
    {
      "name": "Object_34",
      "primitives": [
        {
          "attributes": {
            "NORMAL": 137,
            "POSITION": 136,
            "TEXCOORD_0": 138
          },
          "indices": 139,
          "material": 33,
          "mode": 4
        }
      ]
    },
    {
      "name": "Object_35",
      "primitives": [
        {
          "attributes": {
            "NORMAL": 141,
            "POSITION": 140,
            "TEXCOORD_0": 142
          },
          "indices": 143,
          "material": 34,
          "mode": 4
        }
      ]
    }
  ],
  "nodes": [
    {
      "children": [
        1
      ],
      "matrix": [
        1.0,
        0.0,
        0.0,
        0.0,
        0.0,
        2.220446049250313e-16,
        -1.0,
        0.0,
        0.0,
        1.0,
        2.220446049250313e-16,
        0.0,
        0.0,
        0.0,
        0.0,
        1.0
      ],
      "name": "Sketchfab_model"
    },
    {
      "children": [
        2
      ],
      "name": "root"
    },
    {
      "children": [
        3,
        37
      ],
      "matrix": [
        1.0,
        0.0,
        0.0,
        0.0,
        0.0,
        2.220446049250313e-16,
        1.0,
        0.0,
        0.0,
        -1.0,
        2.220446049250313e-16,
        0.0,
        0.0,
        0.0,
        0.0,
        1.0
      ],
      "name": "GLTF_SceneRootNode"
    },
    {
      "children": [
        4,
        5,
        6,
        7,
        8,
        9,
        10,
        11,
        12,
        13,
        14,
        15,
        16,
        17,
        18,
        19,
        20,
        21,
        22,
        23,
        24,
        25,
        26,
        27,
        28,
        29,
        30,
        31,
        32,
        33,
        34,
        35,
        36
      ],
      "matrix": [
        1.0,
        0.0,
        0.0,
        0.0,
        0.0,
        1.0,
        0.0,
        0.0,
        0.0,
        0.0,
        1.0,
        0.0,
        3.0,
        5.0,
        0.0,
        1.0
      ],
      "name": "Cylinder.002_0"
    },
    {
      "mesh": 0,
      "name": "Object_4"
    },
    {
      "mesh": 1,
      "name": "Object_5"
    },
    {
      "mesh": 2,
      "name": "Object_6"
    },
    {
      "mesh": 3,
      "name": "Object_7"
    },
    {
      "mesh": 4,
      "name": "Object_8"
    },
    {
      "mesh": 5,
      "name": "Object_9"
    },
    {
      "mesh": 6,
      "name": "Object_10"
    },
    {
      "mesh": 7,
      "name": "Object_11"
    },
    {
      "mesh": 8,
      "name": "Object_12"
    },
    {
      "mesh": 9,
      "name": "Object_13"
    },
    {
      "mesh": 10,
      "name": "Object_14"
    },
    {
      "mesh": 11,
      "name": "Object_15"
    },
    {
      "mesh": 12,
      "name": "Object_16"
    },
    {
      "mesh": 13,
      "name": "Object_17"
    },
    {
      "mesh": 14,
      "name": "Object_18"
    },
    {
      "mesh": 15,
      "name": "Object_19"
    },
    {
      "mesh": 16,
      "name": "Object_20"
    },
    {
      "mesh": 17,
      "name": "Object_21"
    },
    {
      "mesh": 18,
      "name": "Object_22"
    },
    {
      "mesh": 19,
      "name": "Object_23"
    },
    {
      "mesh": 20,
      "name": "Object_24"
    },
    {
      "mesh": 21,
      "name": "Object_25"
    },
    {
      "mesh": 22,
      "name": "Object_26"
    },
    {
      "mesh": 23,
      "name": "Object_27"
    },
    {
      "mesh": 24,
      "name": "Object_28"
    },
    {
      "mesh": 25,
      "name": "Object_29"
    },
    {
      "mesh": 26,
      "name": "Object_30"
    },
    {
      "mesh": 27,
      "name": "Object_31"
    },
    {
      "mesh": 28,
      "name": "Object_32"
    },
    {
      "mesh": 29,
      "name": "Object_33"
    },
    {
      "mesh": 30,
      "name": "Object_34"
    },
    {
      "mesh": 31,
      "name": "Object_35"
    },
    {
      "mesh": 32,
      "name": "Object_36"
    },
    {
      "children": [
        38,
        39,
        40
      ],
      "matrix": [
        1.0,
        0.0,
        0.0,
        0.0,
        0.0,
        1.0,
        0.0,
        0.0,
        0.0,
        0.0,
        1.0,
        0.0,
        -3.0,
        -5.099999904632568,
        0.0,
        1.0
      ],
      "name": "Sphere_1"
    },
    {
      "mesh": 33,
      "name": "Object_38"
    },
    {
      "mesh": 34,
      "name": "Object_39"
    },
    {
      "mesh": 35,
      "name": "Object_40"
    }
  ],
  "scene": 0,
  "scenes": [
    {
      "name": "Sketchfab_Scene",
      "nodes": [
        0
      ]
    }
  ]
}
