{
  "accessors": [
    {
      "bufferView": 2,
      "componentType": 5126,
      "count": 12960,
      "max": [
        0.9469174146652222,
        0.9469174146652222,
        3.6417386531829834
      ],
      "min": [
        -0.9469174146652222,
        -1.1546038389205933,
        -0.0002611875534057617
      ],
      "type": "VEC3"
    },
    {
      "bufferView": 2,
      "byteOffset": 155520,
      "componentType": 5126,
      "count": 12960,
      "max": [
        1.0,
        1.0,
        1.0
      ],
      "min": [
        -1.0,
        -1.0,
        -1.0
      ],
      "type": "VEC3"
    },
    {
      "bufferView": 3,
      "componentType": 5126,
      "count": 12960,
      "max": [
        1.0,
        1.0,
        0.9999997019767761,
        1.0
      ],
      "min": [
        -1.0,
        -1.0,
        -0.9999998211860657,
        -1.0
      ],
      "type": "VEC4"
    },
    {
      "bufferView": 1,
      "componentType": 5126,
      "count": 12960,
      "max": [
        0.99609375,
        0.9754465818405151
      ],
      "min": [
        0.00390625,
        0.00390625
      ],
      "type": "VEC2"
    },
    {
      "bufferView": 0,
      "componentType": 5125,
      "count": 61188,
      "type": "SCALAR"
    }
  ],
  "asset": {
    "extras": {
      "author": "MartianDays (https://sketchfab.com/MartianDays)",
      "license": "CC-BY-4.0 (http://creativecommons.org/licenses/by/4.0/)",
      "source": "https://sketchfab.com/3d-models/blue-origin-be-4-9ddaccacc2fa4beaa4f2e576ca1e7b6e",
      "title": "Blue Origin BE-4"
    },
    "generator": "Sketchfab-12.67.0",
    "version": "2.0"
  },
  "bufferViews": [
    {
      "buffer": 0,
      "byteLength": 244752,
      "name": "floatBufferViews",
      "target": 34963
    },
    {
      "buffer": 0,
      "byteLength": 103680,
      "byteOffset": 244752,
      "byteStride": 8,
      "name": "floatBufferViews",
      "target": 34962
    },
    {
      "buffer": 0,
      "byteLength": 311040,
      "byteOffset": 348432,
      "byteStride": 12,
      "name": "floatBufferViews",
      "target": 34962
    },
    {
      "buffer": 0,
      "byteLength": 207360,
      "byteOffset": 659472,
      "byteStride": 16,
      "name": "floatBufferViews",
      "target": 34962
    }
  ],
  "buffers": [
    {
      "byteLength": 866832,
      "uri": "scene.bin"
    }
  ],
  "images": [
    {
      "uri": "textures/Engine_MainMetal_baseColor.png"
    },
    {
      "uri": "textures/Engine_MainMetal_metallicRoughness.png"
    },
    {
      "uri": "textures/Engine_MainMetal_normal.png"
    }
  ],
  "materials": [
    {
      "doubleSided": true,
      "name": "Engine_MainMetal",
      "normalTexture": {
        "index": 2
      },
      "pbrMetallicRoughness": {
        "baseColorTexture": {
          "index": 0
        },
        "metallicRoughnessTexture": {
          "index": 1
        }
      }
    }
  ],
  "meshes": [
    {
      "name": "BE-4_Engine_MainMetal_0",
      "primitives": [
        {
          "attributes": {
            "NORMAL": 1,
            "POSITION": 0,
            "TANGENT": 2,
            "TEXCOORD_0": 3
          },
          "indices": 4,
          "material": 0,
          "mode": 4
        }
      ]
    }
  ],
  "nodes": [
    {
      "children": [
        1
      ],
      "matrix": [
        1.0,
        0.0,
        0.0,
        0.0,
        0.0,
        -2.220446049250313e-16,
        1.0,
        0.0,
        0.0,
        -1.0,
        -2.220446049250313e-16,
        0.0,
        0.0,
        -364.1463928222656,
        -20.76786804199227,
        1.0
      ],
      "name": "Sketchfab_model"
    },
    {
      "children": [
        2
      ],
      "matrix": [
        1.0,
        0.0,
        0.0,
        0.0,
        0.0,
        -1.0,
        0.0,
        0.0,
        0.0,
        0.0,
        -1.0,
        0.0,
        0.0,
        0.0,
        0.0,
        1.0
      ],
      "name": "6603db3459f1432e840d6e950671e09c.fbx"
    },
    {
      "children": [
        3
      ],
      "name": "RootNode"
    },
    {
      "children": [
        4
      ],
      "matrix": [
        100.0,
        0.0,
        0.0,
        0.0,
        0.0,
        100.0,
        0.0,
        0.0,
        0.0,
        0.0,
        100.0,
        0.0,
        0.0,
        0.0,
        -6.05359673500061e-06,
        1.0
      ],
      "name": "BE-4"
    },
    {
      "mesh": 0,
      "name": "BE-4_Engine_MainMetal_0"
    }
  ],
  "samplers": [
    {
      "magFilter": 9729,
      "minFilter": 9987,
      "wrapS": 10497,
      "wrapT": 10497
    }
  ],
  "scene": 0,
  "scenes": [
    {
      "name": "Sketchfab_Scene",
      "nodes": [
        0
      ]
    }
  ],
  "textures": [
    {
      "sampler": 0,
      "source": 0
    },
    {
      "sampler": 0,
      "source": 1
    },
    {
      "sampler": 0,
      "source": 2
    }
  ]
}
